PathFileType	4	(X/Y/Z)	/Users/itak/Documents/Research/Walk-IL/dataset/trc/00133_00007.trc
DataRate	CameraRate	NumFrames	NumMarkers	Units	OrigDataRate	OrigDataStartFrame	OrigNumFrames
100.000000	100.000000	4	53	mm	100.000000	640	732
Frame#	Time	RPSI			LPSI			L3			STRN			T10			C7			CLAV			RBAK			LBAK			LSHO			LUPA			LAEL			LAOL			LWTS			LWPS			LFRA			LIFD			LHPS			LHTS			RSHO			RUPA			RAEL			RAOL			RWTS			RWPS			RFRA			RIFD			RHTS			RHPS			RBHD			LFHD			RFHD			LBHD			LHIP			RHIP			RASI			LASI			LKNE			LTHI			LANK			LTIP			LTOE			LMT1			LMT5			LHEE			RKNE			RTHI			RANK			RTIP			RTOE			RMT1			RMT5			RHEE			
		X1	Y1	Z1	X2	Y2	Z2	X3	Y3	Z3	X4	Y4	Z4	X5	Y5	Z5	X6	Y6	Z6	X7	Y7	Z7	X8	Y8	Z8	X9	Y9	Z9	X10	Y10	Z10	X11	Y11	Z11	X12	Y12	Z12	X13	Y13	Z13	X14	Y14	Z14	X15	Y15	Z15	X16	Y16	Z16	X17	Y17	Z17	X18	Y18	Z18	X19	Y19	Z19	X20	Y20	Z20	X21	Y21	Z21	X22	Y22	Z22	X23	Y23	Z23	X24	Y24	Z24	X25	Y25	Z25	X26	Y26	Z26	X27	Y27	Z27	X28	Y28	Z28	X29	Y29	Z29	X30	Y30	Z30	X31	Y31	Z31	X32	Y32	Z32	X33	Y33	Z33	X34	Y34	Z34	X35	Y35	Z35	X36	Y36	Z36	X37	Y37	Z37	X38	Y38	Z38	X39	Y39	Z39	X40	Y40	Z40	X41	Y41	Z41	X42	Y42	Z42	X43	Y43	Z43	X44	Y44	Z44	X45	Y45	Z45	X46	Y46	Z46	X47	Y47	Z47	X48	Y48	Z48	X49	Y49	Z49	X50	Y50	Z50	X51	Y51	Z51	X52	Y52	Z52	X53	Y53	Z53	

641	6.4	649.8225708007812	1118.9775390625	926.6121826171875	698.1595458984375	1128.76904296875	1052.883422851562	682.6382446289062	1161.010620117188	990.1469116210938	482.1776123046875	1364.768920898438	1069.216552734375	722.3320922851562	1313.089721679688	979.8815307617188	696.8587036132812	1604.99462890625	1009.725158691406	521.1129760742188	1498.53759765625	1061.065063476562	717.2230224609375	1420.787109375	908.6295776367188	737.2659912109375	1584.394409179688	1103.844604492188	676.7449951171875	1572.002075195312	1194.324340820312	708.4195556640625	1444.154418945312	1262.54150390625	672.1092529296875	1233.1318359375	1315.060546875	713.8405151367188	1201.886840820312	1242.925170898438	498.8848266601562	1014.97607421875	1335.590698242188	573.5322265625	967.0065307617188	1341.816284179688	630.3705444335938	1126.196044921875	1338.575073242188	424.3593139648438	836.0202026367188	1339.559326171875	525.6795043945312	905.654052734375	1360.851318359375	462.337646484375	935.75927734375	1362.69580078125	584.4547119140625	1586.68603515625	856.884521484375	581.275634765625	1513.614868164062	790.8782958984375	590.950927734375	1218.970336914062	768.3184204101562	626.384033203125	1219.25537109375	858.150634765625	454.8592834472656	977.6815795898438	825.2743530273438	518.2490234375	959.269775390625	774.5250854492188	563.8104248046875	1145.512939453125	761.2120361328125	437.4247741699219	783.8025512695312	854.7308349609375	423.6730651855469	869.43798828125	830.28564453125	479.9591064453125	860.0784301757812	783.1590576171875	600.0446166992188	1793.429931640625	966.16357421875	484.3477478027344	1808.835205078125	1154.431884765625	436.0684814453125	1817.780395507812	1033.387451171875	654.4991455078125	1790.165405273438	1088.91357421875	651.036376953125	1046.256103515625	1190.152954101562	481.3964233398438	1024.888916015625	869.4646606445312	433.527587890625	1105.323486328125	946.5226440429688	535.4956665039062	1110.079711914062	1192.090942382812	600.66748046875	545.1431274414062	1173.457153320312	636.236572265625	689.2625732421875	1190.643920898438	652.8438110351562	37.14183807373047	1121.432739257812	678.257080078125	292.6777648925781	1160.106079101562	413.5872192382812	39.47885131835938	1143.009399414062	480.4568176269531	47.56420516967773	1085.427856445312	544.3890380859375	37.87734603881836	1187.402709960938	697.7039794921875	38.23078918457031	1040.69482421875	398.0306396484375	544.029052734375	975.8206176757812	431.3971557617188	818.7393188476562	915.92138671875	584.8806762695312	58.14592742919922	899.4843139648438	437.8321228027344	410.956787109375	945.9315185546875	395.7575378417969	76.70687103271484	1032.669799804688	465.2544555664062	57.633056640625	1050.8720703125	455.9286804199219	65.78654479980469	931.9378051757812	656.669189453125	58.4742431640625	920.9873657226562	
642	6.41	647.75439453125	1118.948486328125	927.5125122070312	696.3851928710938	1128.658325195312	1053.6455078125	680.6765747070312	1160.817260742188	990.9409790039062	480.71044921875	1364.699462890625	1070.264892578125	720.6580810546875	1312.809936523438	980.5265502929688	695.5575561523438	1604.73974609375	1010.422058105469	519.7914428710938	1498.455200195312	1062.040283203125	715.5983276367188	1420.482666015625	909.2904663085938	736.0313110351562	1584.020141601562	1104.499267578125	675.6976928710938	1571.651123046875	1195.088623046875	707.39111328125	1443.663208007812	1263.006591796875	671.0990600585938	1232.410034179688	1314.887817382812	712.853759765625	1201.42578125	1242.677856445312	497.9520568847656	1014.059692382812	1334.457275390625	572.587646484375	966.069580078125	1340.590942382812	629.3731689453125	1125.331787109375	1337.982543945312	423.4712829589844	835.0030517578125	1337.6728515625	524.7462768554688	904.671875	1359.352661132812	461.49072265625	934.7609252929688	1361.296264648438	582.9102172851562	1586.528686523438	857.7329711914062	579.5863037109375	1513.478637695312	791.7059936523438	589.1434326171875	1218.818115234375	769.21533203125	624.7822265625	1219.129760742188	858.9761352539062	453.3472290039062	977.4459228515625	826.514892578125	516.6515502929688	959.0816040039062	775.6173706054688	562.0118408203125	1145.34326171875	762.1845092773438	436.2762145996094	783.4959106445312	856.0773315429688	422.3221435546875	869.1288452148438	831.6474609375	478.4812316894531	859.8338012695312	784.3594360351562	599.1110229492188	1793.210205078125	966.9117431640625	483.1162719726562	1808.80712890625	1154.974853515625	435.0151977539062	1817.710327148438	1033.848754882812	653.3422241210938	1789.971435546875	1089.745483398438	649.4694213867188	1046.160766601562	1191.008544921875	479.317626953125	1024.712890625	870.7157592773438	431.5104675292969	1105.264892578125	947.75390625	534.0096435546875	1109.99072265625	1193.125732421875	599.859130859375	544.9878540039062	1174.000854492188	635.1884765625	689.2147827148438	1191.236328125	652.8760986328125	37.1161003112793	1121.430908203125	678.04345703125	292.7169494628906	1160.373657226562	413.6521606445312	39.51740264892578	1143.008911132812	480.4602661132812	47.54434585571289	1085.46533203125	544.385498046875	37.87305068969727	1187.393310546875	697.7425537109375	38.20809173583984	1040.66357421875	400.3070983886719	542.8876953125	976.0018310546875	430.8433227539062	817.9866943359375	916.774658203125	578.8128051757812	53.21671295166016	904.179931640625	438.0283508300781	409.1100769042969	946.9987182617188	390.5350646972656	75.58820343017578	1038.395629882812	460.233154296875	56.37442398071289	1056.525146484375	450.0401611328125	63.05541229248047	937.3569946289062	650.7061767578125	52.96867370605469	925.102783203125	
643	6.42	645.6680297851562	1118.88330078125	928.3908081054688	694.575439453125	1128.532104492188	1054.388671875	678.6854248046875	1160.578979492188	991.7042846679688	479.2400512695312	1364.6005859375	1071.252075195312	718.9440307617188	1312.476684570312	981.1024780273438	694.276123046875	1604.444458007812	1011.021240234375	518.4728393554688	1498.336547851562	1062.947875976562	713.9485473632812	1420.12841796875	909.8511352539062	734.7996215820312	1583.553955078125	1105.03564453125	674.6925659179688	1571.243530273438	1195.756713867188	706.42822265625	1443.114990234375	1263.362548828125	670.227294921875	1231.612548828125	1314.59375	711.9930419921875	1200.919189453125	1242.291748046875	497.2908325195312	1012.95458984375	1333.22119140625	571.9616088867188	965.00537109375	1339.24267578125	628.5822143554688	1124.370239257812	1337.266967773438	423.0098571777344	833.7904052734375	1335.691772460938	524.1463012695312	903.4959106445312	1357.71240234375	460.9885559082031	933.5670166015625	1359.814086914062	581.35400390625	1586.333984375	858.4996337890625	577.87060546875	1513.307739257812	792.451904296875	587.2734985351562	1218.632934570312	770.0169067382812	623.1511840820312	1218.96484375	859.6994018554688	451.8096618652344	977.1824951171875	827.7005004882812	514.9948120117188	958.860595703125	776.6257934570312	560.140625	1145.140380859375	763.0675048828125	435.0635070800781	783.1680297851562	857.3372192382812	420.9317932128906	868.7880859375	832.9529418945312	476.9448547363281	859.5523681640625	785.4833984375	598.225830078125	1792.942993164062	967.5640258789062	481.9294128417969	1808.783569335938	1155.414184570312	434.0149536132812	1817.643310546875	1034.22412109375	652.2334594726562	1789.734497070312	1090.463989257812	647.8496704101562	1046.065185546875	1191.853637695312	477.2717590332031	1024.469482421875	871.9295043945312	429.4508361816406	1105.142822265625	948.9100341796875	532.4595947265625	1109.888427734375	1194.114990234375	598.9910888671875	544.7531127929688	1174.494018554688	634.1090087890625	689.166748046875	1191.813842773438	652.9085693359375	37.08797454833984	1121.431640625	677.8248901367188	292.7562255859375	1160.632080078125	413.7250671386719	39.56164169311523	1143.010986328125	480.468505859375	47.50423049926758	1085.5380859375	544.3856811523438	37.86587142944336	1187.383911132812	697.785888671875	38.18625640869141	1040.634521484375	402.7737426757812	541.7203369140625	975.9207763671875	430.3875122070312	817.16552734375	917.4591674804688	573.2349243164062	48.64748764038086	908.5667114257812	438.4436950683594	407.3011779785156	947.7974243164062	385.5338439941406	73.66550445556641	1043.640991210938	455.4868774414062	54.55857849121094	1061.680786132812	444.5544738769531	60.21502304077148	942.3201293945312	645.2095947265625	47.96333312988281	929.0227661132812	
644	6.43	643.574951171875	1118.799194335938	929.2520751953125	692.7346801757812	1128.398559570312	1055.1220703125	676.6668701171875	1160.304565429688	992.447021484375	477.7576293945312	1364.472412109375	1072.1787109375	717.1937866210938	1312.097045898438	981.6160278320312	693.0135498046875	1604.115234375	1011.517211914062	517.1531372070312	1498.180053710938	1063.785522460938	712.2734985351562	1419.731567382812	910.3140258789062	733.5751342773438	1583.011596679688	1105.450927734375	673.7280883789062	1570.785888671875	1196.328369140625	705.5244750976562	1442.507690429688	1263.604614257812	669.480712890625	1230.74072265625	1314.182495117188	711.2478637695312	1200.369750976562	1241.772338867188	496.8963012695312	1011.663757324219	1331.891845703125	571.6535034179688	963.827392578125	1337.7900390625	627.986572265625	1123.3134765625	1336.43408203125	422.9672241210938	832.3699951171875	1333.615966796875	523.876708984375	902.1192016601562	1355.937377929688	460.8070068359375	932.1719970703125	1358.242431640625	579.78759765625	1586.10595703125	859.179931640625	576.1280517578125	1513.10205078125	793.1142578125	585.34423828125	1218.412841796875	770.7228393554688	621.4874267578125	1218.760864257812	860.3195190429688	450.2481384277344	976.8887939453125	828.8328247070312	513.2767944335938	958.6044921875	777.5515747070312	558.1954345703125	1144.904052734375	763.8626098632812	433.7808227539062	782.8192138671875	858.5114135742188	419.5154113769531	868.4168701171875	834.2097778320312	475.3493347167969	859.238525390625	786.5314331054688	597.3750610351562	1792.645874023438	968.11767578125	480.7835388183594	1808.76611328125	1155.751708984375	433.0647888183594	1817.583984375	1034.515258789062	651.1740112304688	1789.471069335938	1091.0751953125	646.1823120117188	1045.966674804688	1192.69091796875	475.2693481445312	1024.180297851562	873.094970703125	427.3558959960938	1104.960815429688	949.9967041015625	530.8521118164062	1109.770263671875	1195.072998046875	598.0481567382812	544.4269409179688	1174.92529296875	633.0094604492188	689.120361328125	1192.376831054688	652.9420776367188	37.0585823059082	1121.43603515625	677.5884399414062	292.7936096191406	1160.873901367188	413.8093566894531	39.61394119262695	1143.015258789062	480.5078125	47.46591949462891	1085.626953125	544.3907470703125	37.85723114013672	1187.375244140625	697.834228515625	38.16470336914062	1040.609252929688	405.3617858886719	540.56591796875	975.5757446289062	430.0216979980469	816.3146362304688	917.9484252929688	568.2957153320312	44.58483505249023	912.532470703125	439.0517272949219	405.5741271972656	948.3263549804688	380.8417053222656	70.89204406738281	1048.346069335938	451.0851440429688	52.10818481445312	1066.225463867188	439.5792541503906	57.3449592590332	946.732177734375	640.3191528320312	43.60368347167969	932.6509399414062	
